<mxfile host="app.diagrams.net" modified="2023-04-18T09:00:13.897Z" agent="Mozilla/5.0 (Windows NT 10.0; Win64; x64) AppleWebKit/537.36 (KHTML, like Gecko) Chrome/112.0.0.0 Safari/537.36" etag="OwnSBAtRR7LSXkR1RqzN" version="21.1.8" type="google">
  <diagram name="Page-1" id="G3DsE0MbdHHnbtvKET4H">
    <mxGraphModel dx="836" dy="1604" grid="1" gridSize="10" guides="1" tooltips="1" connect="1" arrows="1" fold="1" page="1" pageScale="1" pageWidth="827" pageHeight="1169" math="0" shadow="0">
      <root>
        <mxCell id="0" />
        <mxCell id="1" parent="0" />
        <mxCell id="fMZaM2UqrWa_nwEGe8P5-1" value="" style="rounded=1;whiteSpace=wrap;html=1;fillColor=#031d2f;strokeColor=#6c8ebf;" vertex="1" parent="1">
          <mxGeometry x="90" y="-60" width="600" height="620" as="geometry" />
        </mxCell>
        <mxCell id="fMZaM2UqrWa_nwEGe8P5-2" value="" style="rounded=0;whiteSpace=wrap;html=1;fillColor=#224c7b;" vertex="1" parent="1">
          <mxGeometry x="138" y="80" width="500" height="90" as="geometry" />
        </mxCell>
        <mxCell id="fMZaM2UqrWa_nwEGe8P5-3" value="&lt;font style=&quot;font-size: 14px;&quot; color=&quot;#ffffff&quot;&gt;Presentation Layer&lt;/font&gt;" style="text;html=1;align=center;verticalAlign=middle;whiteSpace=wrap;rounded=0;" vertex="1" parent="1">
          <mxGeometry x="150" y="110" width="140" height="30" as="geometry" />
        </mxCell>
        <mxCell id="fMZaM2UqrWa_nwEGe8P5-4" value="&lt;font color=&quot;#ffffff&quot;&gt;&lt;span style=&quot;font-size: 16px;&quot;&gt;ReactJS&lt;/span&gt;&lt;br&gt;&lt;/font&gt;" style="text;html=1;strokeColor=none;fillColor=none;align=center;verticalAlign=middle;whiteSpace=wrap;rounded=0;" vertex="1" parent="1">
          <mxGeometry x="420" y="99.5" width="86" height="51" as="geometry" />
        </mxCell>
        <mxCell id="fMZaM2UqrWa_nwEGe8P5-5" value="" style="rounded=0;whiteSpace=wrap;html=1;fillColor=#224c7b;" vertex="1" parent="1">
          <mxGeometry x="138" y="190" width="500" height="90" as="geometry" />
        </mxCell>
        <mxCell id="fMZaM2UqrWa_nwEGe8P5-6" value="&lt;font style=&quot;font-size: 14px;&quot; color=&quot;#ffffff&quot;&gt;Business Application Layer&lt;/font&gt;" style="text;html=1;align=center;verticalAlign=middle;whiteSpace=wrap;rounded=0;" vertex="1" parent="1">
          <mxGeometry x="160" y="220" width="172" height="30" as="geometry" />
        </mxCell>
        <mxCell id="fMZaM2UqrWa_nwEGe8P5-7" value="&lt;font color=&quot;#ffffff&quot;&gt;&lt;span style=&quot;font-size: 16px;&quot;&gt;NodeJS,NextJS&lt;/span&gt;&lt;br&gt;&lt;/font&gt;" style="text;html=1;strokeColor=none;fillColor=none;align=center;verticalAlign=middle;whiteSpace=wrap;rounded=0;" vertex="1" parent="1">
          <mxGeometry x="414" y="209.5" width="136" height="51" as="geometry" />
        </mxCell>
        <mxCell id="fMZaM2UqrWa_nwEGe8P5-8" value="" style="rounded=0;whiteSpace=wrap;html=1;fillColor=#224c7b;" vertex="1" parent="1">
          <mxGeometry x="138" y="300" width="500" height="90" as="geometry" />
        </mxCell>
        <mxCell id="fMZaM2UqrWa_nwEGe8P5-9" value="&lt;font style=&quot;font-size: 14px;&quot; color=&quot;#ffffff&quot;&gt;Persistent Layer&lt;/font&gt;" style="text;html=1;align=center;verticalAlign=middle;whiteSpace=wrap;rounded=0;" vertex="1" parent="1">
          <mxGeometry x="150" y="330" width="125" height="30" as="geometry" />
        </mxCell>
        <mxCell id="fMZaM2UqrWa_nwEGe8P5-10" value="&lt;font color=&quot;#ffffff&quot;&gt;&lt;span style=&quot;font-size: 16px;&quot;&gt;MongoDB,RedisDB&lt;/span&gt;&lt;br&gt;&lt;/font&gt;" style="text;html=1;strokeColor=none;fillColor=none;align=center;verticalAlign=middle;whiteSpace=wrap;rounded=0;" vertex="1" parent="1">
          <mxGeometry x="414" y="319.5" width="166" height="51" as="geometry" />
        </mxCell>
        <mxCell id="fMZaM2UqrWa_nwEGe8P5-11" value="" style="rounded=0;whiteSpace=wrap;html=1;fillColor=#224c7b;" vertex="1" parent="1">
          <mxGeometry x="140" y="410" width="500" height="90" as="geometry" />
        </mxCell>
        <mxCell id="fMZaM2UqrWa_nwEGe8P5-12" value="&lt;font style=&quot;font-size: 14px;&quot; color=&quot;#ffffff&quot;&gt;Storage Layer&lt;/font&gt;" style="text;html=1;align=center;verticalAlign=middle;whiteSpace=wrap;rounded=0;" vertex="1" parent="1">
          <mxGeometry x="152" y="440" width="125" height="30" as="geometry" />
        </mxCell>
        <mxCell id="fMZaM2UqrWa_nwEGe8P5-13" value="&lt;font color=&quot;#ffffff&quot;&gt;&lt;span style=&quot;font-size: 16px;&quot;&gt;Amazon S3 Bucket&lt;/span&gt;&lt;br&gt;&lt;/font&gt;" style="text;html=1;strokeColor=none;fillColor=none;align=center;verticalAlign=middle;whiteSpace=wrap;rounded=0;" vertex="1" parent="1">
          <mxGeometry x="416" y="429.5" width="166" height="51" as="geometry" />
        </mxCell>
        <mxCell id="fMZaM2UqrWa_nwEGe8P5-14" value="&lt;font style=&quot;font-size: 30px;&quot; color=&quot;#ffffff&quot;&gt;ARCHITECTURE DIAGRAM&lt;/font&gt;" style="text;html=1;strokeColor=none;fillColor=none;align=center;verticalAlign=middle;whiteSpace=wrap;rounded=0;" vertex="1" parent="1">
          <mxGeometry x="170" y="-20" width="440" height="30" as="geometry" />
        </mxCell>
      </root>
    </mxGraphModel>
  </diagram>
</mxfile>
